<svg aria-hidden="true" style="width:0;height:0;position:absolute;overflow:hidden" xmlns="http://www.w3.org/2000/svg"><defs><symbol id="icon-logo" viewBox="0 0 202 32"><path fill="#ed1d24" style="fill:var(--color1,#ed1d24)" d="M0 .5h98v31H0V.5z"/><path fill="#fafafa" style="fill:var(--color2,#fafafa)" d="M4.336 26.5V6.9h4.48l1.624 10.08L12.036 6.9H16.6v19.628h-3.64v-9.464L11.364 26.5H9.488l-1.596-9.352V26.5H4.336zM24.499 6.9l2.968 19.6h-3.556l-.392-3.024h-2.744l-.42 3.024h-3.5l2.94-19.6h4.704zm-1.344 13.44-1.008-8.232-.952 8.232h1.96zM31.611 6.9c.653 0 1.269.103 1.848.308a4.301 4.301 0 0 1 1.596.98c.467.429.849.989 1.148 1.68.317.691.523 1.531.616 2.52.131 1.213.093 2.231-.112 3.052-.187.803-.42 1.447-.7 1.932-.317.597-.7 1.064-1.148 1.4l2.324 7.728h-3.584l-1.708-6.58-.784.14v6.44h-3.528l.028-19.6h4.004zm-.504 9.688c.429-.037.784-.14 1.064-.308.28-.187.513-.42.7-.7s.317-.597.392-.952c.075-.355.112-.719.112-1.092 0-.392-.037-.775-.112-1.148a3.407 3.407 0 0 0-.364-1.036 1.953 1.953 0 0 0-.7-.756c-.28-.187-.644-.28-1.092-.28v6.272zM39.863 6.9l1.568 11.816L43.083 6.9h3.528l-3.108 19.6h-4.144L36.223 6.9h3.64zM46.833 26.5V6.9h6.58v3.472h-2.968v4.424h2.996v3.64h-3.164v4.424h3.192v3.64h-6.636zM58.041 6.872v16.1h3.024v3.556h-6.496V6.9l3.472-.028zM61.925 16.7c0-1.475.131-2.809.392-4.004.261-1.213.625-2.249 1.092-3.108s1.036-1.521 1.708-1.988 1.409-.7 2.212-.7c.803 0 1.531.233 2.184.7.672.467 1.241 1.129 1.708 1.988s.831 1.895 1.092 3.108c.261 1.195.392 2.529.392 4.004s-.131 2.819-.392 4.032c-.261 1.195-.625 2.221-1.092 3.08s-1.036 1.521-1.708 1.988c-.653.467-1.381.7-2.184.7s-1.54-.233-2.212-.7-1.241-1.129-1.708-1.988c-.467-.859-.831-1.885-1.092-3.08-.261-1.213-.392-2.557-.392-4.032zm3.472.056c0 .933.047 1.783.14 2.548s.224 1.428.392 1.988c.168.541.364.961.588 1.26.243.299.504.448.784.448s.532-.149.756-.448c.243-.299.439-.719.588-1.26.168-.56.299-1.223.392-1.988s.14-1.615.14-2.548-.047-1.783-.14-2.548c-.093-.784-.224-1.447-.392-1.988-.149-.541-.345-.961-.588-1.26-.224-.299-.476-.448-.756-.448s-.541.149-.784.448c-.224.299-.42.719-.588 1.26s-.299 1.204-.392 1.988c-.093.765-.14 1.615-.14 2.548zM84.241 16.812c0 .653-.009 1.353-.028 2.1 0 .728-.047 1.456-.14 2.184-.075.709-.215 1.391-.42 2.044s-.513 1.232-.924 1.736c-.392.485-.905.877-1.54 1.176s-1.419.448-2.352.448c-1.288 0-2.296-.224-3.024-.672-.709-.448-1.241-1.083-1.596-1.904-.336-.84-.541-1.848-.616-3.024a83.025 83.025 0 0 1-.084-3.92V6.872h3.444v9.94c.019 1.157.093 2.184.224 3.08.056.392.131.775.224 1.148.093.355.205.681.336.98.149.28.308.513.476.7a.902.902 0 0 0 .616.252c.28 0 .513-.084.7-.252.205-.187.373-.42.504-.7.149-.299.261-.625.336-.98.093-.373.168-.756.224-1.148.112-.896.159-1.923.14-3.08V6.9h3.5v9.912zM93.176 6.9c.019 0 .028.187.028.56v1.176c0 .523-.009 1.111-.028 1.764-.579 0-1.167.056-1.764.168a5.693 5.693 0 0 0-1.568.476 3.798 3.798 0 0 0-1.12.756 1.47 1.47 0 0 0-.42 1.036c0 .336.121.625.364.868.261.243.569.485.924.728.373.243.775.513 1.204.812.448.28.849.616 1.204 1.008.373.392.681.868.924 1.428.261.56.392 1.241.392 2.044 0 1.195-.224 2.221-.672 3.08a5.89 5.89 0 0 1-1.792 2.1c-.747.541-1.624.943-2.632 1.204s-2.072.392-3.192.392V23c.336 0 .775-.056 1.316-.168s1.064-.299 1.568-.56c.523-.261.971-.607 1.344-1.036s.551-.961.532-1.596c0-.317-.121-.588-.364-.812a4.784 4.784 0 0 0-.924-.7 39.911 39.911 0 0 0-1.148-.756 7.303 7.303 0 0 1-1.176-1.008 5.644 5.644 0 0 1-.896-1.456c-.224-.56-.336-1.251-.336-2.072 0-.859.243-1.652.728-2.38.504-.728 1.148-1.353 1.932-1.876s1.661-.933 2.632-1.232a10.118 10.118 0 0 1 2.94-.448zM109.784 6.9l2.968 19.6h-3.556l-.392-3.024h-2.744l-.42 3.024h-3.5l2.94-19.6h4.704zm-1.344 13.44-1.008-8.232-.952 8.232h1.96zM116.197 6.872c.896 0 1.67.168 2.324.504s1.213.784 1.68 1.344c.466.56.849 1.213 1.148 1.96.298.728.532 1.484.7 2.268s.28 1.577.336 2.38c.074.784.112 1.512.112 2.184 0 1.493-.159 2.753-.476 3.78-.299 1.027-.691 1.867-1.176 2.52-.467.653-.962 1.167-1.484 1.54a6.283 6.283 0 0 1-3.164 1.12h-3.444l.056-19.6h3.388zm.056 16.632.196-.028c.13-.019.298-.084.504-.196.224-.131.457-.327.7-.588.261-.261.494-.635.7-1.12.224-.485.401-1.092.532-1.82.149-.747.224-1.661.224-2.744 0-.28-.01-.644-.028-1.092a13.923 13.923 0 0 0-.14-1.428 10.845 10.845 0 0 0-.28-1.512 6.017 6.017 0 0 0-.532-1.372 2.772 2.772 0 0 0-.784-.98 1.75 1.75 0 0 0-1.148-.392l.056 13.272zM127.035 6.9l1.568 11.816L130.255 6.9h3.528l-3.108 19.6h-4.144l-3.136-19.6h3.64zM134.005 26.5V6.9h6.58v3.472h-2.968v4.424h2.996v3.64h-3.164v4.424h3.192v3.64h-6.636zM141.713 26.5V6.9h3.5l2.996 10.136V6.9h3.584v19.6h-3.584l-3.024-9.352v9.38l-3.472-.028zM163.601 6.9v3.556h-3.528V26.5h-3.444V10.456h-3.78V6.9h10.752zM175.788 16.812c0 .653-.009 1.353-.028 2.1 0 .728-.047 1.456-.14 2.184-.075.709-.215 1.391-.42 2.044s-.513 1.232-.924 1.736c-.392.485-.905.877-1.54 1.176s-1.419.448-2.352.448c-1.288 0-2.296-.224-3.024-.672-.709-.448-1.241-1.083-1.596-1.904-.336-.84-.541-1.848-.616-3.024a83.025 83.025 0 0 1-.084-3.92V6.872h3.444v9.94c.019 1.157.093 2.184.224 3.08.056.392.131.775.224 1.148.093.355.205.681.336.98.149.28.308.513.476.7a.902.902 0 0 0 .616.252c.28 0 .513-.084.7-.252.205-.187.373-.42.504-.7.149-.299.261-.625.336-.98.093-.373.168-.756.224-1.148.112-.896.159-1.923.14-3.08V6.9h3.5v9.912zM180.635 6.9c.653 0 1.269.103 1.848.308a4.301 4.301 0 0 1 1.596.98c.467.429.849.989 1.148 1.68.317.691.523 1.531.616 2.52.131 1.213.093 2.231-.112 3.052-.187.803-.42 1.447-.7 1.932-.317.597-.7 1.064-1.148 1.4l2.324 7.728h-3.584l-1.708-6.58-.784.14v6.44h-3.528l.028-19.6h4.004zm-.504 9.688c.429-.037.784-.14 1.064-.308.28-.187.513-.42.7-.7s.317-.597.392-.952c.075-.355.112-.719.112-1.092 0-.392-.037-.775-.112-1.148a3.407 3.407 0 0 0-.364-1.036 1.953 1.953 0 0 0-.7-.756c-.28-.187-.644-.28-1.092-.28v6.272z"/><path fill="#fafafa" style="fill:var(--color2,#fafafa)" d="M185.247 26.5V6.9h6.58v3.472h-2.968v4.424h2.996v3.64h-3.164v4.424h3.192v3.64h-6.636zM201.047 6.9c.019 0 .028.187.028.56v1.176c0 .523-.009 1.111-.028 1.764-.578 0-1.166.056-1.764.168a5.704 5.704 0 0 0-1.568.476 3.798 3.798 0 0 0-1.12.756 1.47 1.47 0 0 0-.42 1.036c0 .336.122.625.364.868.262.243.57.485.924.728.374.243.775.513 1.204.812.448.28.85.616 1.204 1.008.374.392.682.868.924 1.428.262.56.392 1.241.392 2.044 0 1.195-.224 2.221-.672 3.08a5.88 5.88 0 0 1-1.792 2.1c-.746.541-1.624.943-2.632 1.204s-2.072.392-3.192.392V23c.336 0 .775-.056 1.316-.168a6.064 6.064 0 0 0 1.568-.56 4.315 4.315 0 0 0 1.344-1.036c.374-.429.551-.961.532-1.596 0-.317-.121-.588-.364-.812a4.723 4.723 0 0 0-.924-.7 38.565 38.565 0 0 0-1.148-.756 7.39 7.39 0 0 1-1.176-1.008 5.671 5.671 0 0 1-.896-1.456c-.224-.56-.336-1.251-.336-2.072 0-.859.243-1.652.728-2.38.504-.728 1.148-1.353 1.932-1.876s1.662-.933 2.632-1.232c.99-.299 1.97-.448 2.94-.448z"/><path fill="none" stroke="#fafafa" style="stroke:var(--color2,#fafafa)" d="M104 1.5h96M104 31.5h96"/></symbol><symbol id="icon-blocks" viewBox="0 0 32 32"><path d="M32 16c0 8.837-7.163 16-16 16S0 24.837 0 16 7.163 0 16 0s16 7.163 16 16z"/></symbol><symbol id="icon-blocks1" viewBox="0 0 32 32"><path d="M32 16c0 8.837-7.163 16-16 16S0 24.837 0 16 7.163 0 16 0s16 7.163 16 16z"/></symbol><symbol id="icon-chevron-down" viewBox="0 0 32 32"><path fill="none" stroke="#fafafa" style="stroke:var(--color2,#fafafa)" stroke-linejoin="round" stroke-linecap="round" stroke-width="3.556" d="m8 12 8 8 8-8"/></symbol><symbol id="icon-close" viewBox="0 0 32 32"><path fill="none" stroke="#fafafa" style="stroke:var(--color2,#fafafa)" stroke-linejoin="round" stroke-linecap="round" stroke-width="2.286" d="M24 8 8 24M8 8l16 16"/></symbol><symbol id="icon-icon-arrow" viewBox="0 0 32 32"><path stroke-width=".471" d="M27.453 7.096 3.49 31.059.941 28.51 24.904 4.547H.941V.942h30.118V31.06h-3.605V7.097z"/></symbol><symbol id="icon-instagram" viewBox="0 0 32 32"><path d="M31.969 9.408c-.075-1.7-.35-2.869-.744-3.882a7.803 7.803 0 0 0-1.85-2.838A7.867 7.867 0 0 0 26.543.844C25.524.45 24.361.175 22.661.1 20.948.019 20.404 0 16.06 0s-4.888.019-6.595.094c-1.7.075-2.869.35-3.882.744a7.803 7.803 0 0 0-2.838 1.85A7.867 7.867 0 0 0 .901 5.52C.507 6.539.232 7.702.157 9.402c-.081 1.713-.1 2.257-.1 6.601s.019 4.888.094 6.595c.075 1.7.35 2.869.744 3.882a7.895 7.895 0 0 0 1.85 2.838 7.867 7.867 0 0 0 2.832 1.844c1.019.394 2.182.669 3.882.744 1.706.075 2.25.094 6.595.094s4.888-.018 6.595-.094c1.7-.075 2.869-.35 3.882-.744a8.181 8.181 0 0 0 4.682-4.682c.394-1.019.669-2.182.744-3.882.075-1.707.094-2.251.094-6.595s-.006-4.888-.081-6.595zm-2.882 13.065c-.069 1.563-.331 2.407-.55 2.969a5.307 5.307 0 0 1-3.038 3.038c-.563.219-1.413.481-2.969.55-1.688.075-2.194.094-6.464.094s-4.782-.018-6.464-.094c-1.563-.069-2.407-.331-2.969-.55a4.926 4.926 0 0 1-1.838-1.194 4.974 4.974 0 0 1-1.194-1.838c-.219-.563-.481-1.413-.55-2.969-.075-1.688-.094-2.194-.094-6.464s.019-4.782.094-6.464c.069-1.563.331-2.407.55-2.969a4.868 4.868 0 0 1 1.2-1.838A4.974 4.974 0 0 1 6.639 3.55c.563-.219 1.413-.481 2.969-.55 1.688-.075 2.194-.094 6.464-.094 4.276 0 4.782.019 6.464.094 1.563.069 2.407.331 2.969.55a4.914 4.914 0 0 1 1.838 1.194 4.974 4.974 0 0 1 1.194 1.838c.219.563.481 1.413.55 2.969.075 1.688.094 2.194.094 6.464s-.019 4.77-.094 6.457z"/><path d="M16.059 7.782c-4.538 0-8.22 3.682-8.22 8.22s3.682 8.22 8.22 8.22 8.22-3.682 8.22-8.22-3.682-8.22-8.22-8.22zm0 13.553a5.333 5.333 0 0 1 0-10.664 5.333 5.333 0 0 1 0 10.664zM26.524 7.457a1.919 1.919 0 1 1-3.838 0 1.919 1.919 0 0 1 3.838 0z"/></symbol><symbol id="icon-search" viewBox="0 0 32 32"><path fill="none" stroke="#fafafa" style="stroke:var(--color2,#fafafa)" stroke-linejoin="round" stroke-linecap="round" stroke-width="3.556" d="M14.667 25.333c5.891 0 10.667-4.776 10.667-10.667S20.558 3.999 14.667 3.999 4 8.775 4 14.666s4.776 10.667 10.667 10.667zM28 28l-5.8-5.8"/></symbol><symbol id="icon-twitter" viewBox="0 0 32 32"><path d="M32 6.078c-1.19.522-2.458.868-3.78 1.036a6.523 6.523 0 0 0 2.886-3.626 13.11 13.11 0 0 1-4.16 1.588A6.574 6.574 0 0 0 22.154 3c-3.632 0-6.556 2.948-6.556 6.562 0 .52.044 1.02.152 1.496-5.454-.266-10.28-2.88-13.522-6.862a6.605 6.605 0 0 0-.898 3.316 6.57 6.57 0 0 0 2.914 5.452 6.479 6.479 0 0 1-2.964-.808v.072c0 3.188 2.274 5.836 5.256 6.446a6.548 6.548 0 0 1-1.72.216 5.8 5.8 0 0 1-1.242-.112c.85 2.598 3.262 4.508 6.13 4.57a13.182 13.182 0 0 1-8.134 2.798c-.538 0-1.054-.024-1.57-.09A18.469 18.469 0 0 0 10.064 29c12.072 0 18.672-10 18.672-18.668 0-.29-.01-.57-.024-.848A13.087 13.087 0 0 0 32 6.078z"/></symbol><symbol id="icon-arrow-4" viewBox="0 0 32 32"><path fill="#34387f" style="fill:var(--color1,#34387f)" d="M32 16c0 8.837-7.163 16-16 16S0 24.837 0 16 7.163 0 16 0s16 7.163 16 16z"/><path fill="#fafafa" style="fill:var(--color2,#fafafa)" d="m22.881 16.729-4.864-4.616c-.158-.15-.415-.15-.573 0s-.158.394 0 .544l4.172 3.959H8.406c-.224 0-.405.172-.405.385s.182.385.405.385h13.21l-4.172 3.959a.371.371 0 0 0 0 .544.422.422 0 0 0 .574 0l4.864-4.616a.371.371 0 0 0 0-.544l-.001.001z"/></symbol><symbol id="icon-arrow-3" viewBox="0 0 32 32"><path fill="none" stroke="#fafafa" style="stroke:var(--color2,#fafafa)" d="M.5 16c0 8.56 6.94 15.5 15.5 15.5S31.5 24.56 31.5 16C31.5 7.44 24.56.5 16 .5S.5 7.44.5 16z"/><path fill="#fafafa" style="fill:var(--color2,#fafafa)" opacity=".3" d="m9.119 16.729 4.865-4.616c.158-.15.415-.15.573 0s.158.394 0 .544l-4.172 3.959h13.21c.224 0 .405.172.405.385s-.182.385-.405.385h-13.21l4.172 3.959a.371.371 0 0 1 0 .544.422.422 0 0 1-.574 0l-4.865-4.616a.371.371 0 0 1 0-.544l.001.001z"/></symbol><symbol id="icon-linkedin" viewBox="0 0 32 32"><path fill="none" stroke="#fafafa" style="stroke:var(--color2,#fafafa)" stroke-linejoin="round" stroke-linecap="round" stroke-width="1.44" d="M22.6 10.6a6.563 6.563 0 0 1-1.884.918 2.687 2.687 0 0 0-4.717 1.8v.6c-1.054.027-2.099-.207-3.041-.681s-1.952-1.603-2.559-2.467c0 0-2.2 5.829 3.2 8.229a6.986 6.986 0 0 1-4.2 1.2c5.4 3 12 0 12-6.9a2.773 2.773 0 0 0-.048-.498 4.638 4.638 0 0 0 1.248-2.202z"/><path fill="none" stroke="#fafafa" style="stroke:var(--color2, )" stroke-width=".8" d="M4.8.4h22.4a4.4 4.4 0 0 1 4.4 4.4v22.4a4.4 4.4 0 0 1-4.4 4.4H4.8a4.4 4.4 0 0 1-4.4-4.4V4.8A4.4 4.4 0 0 1 4.8.4z"/></symbol><symbol id="icon-facebook" viewBox="0 0 32 32"><path d="M21.329 5.313h2.921V.225C23.746.156 22.013 0 19.994 0c-4.212 0-7.097 2.649-7.097 7.519V12H8.249v5.688h4.648V32h5.699V17.689h4.46l.708-5.688h-5.169V8.082c.001-1.644.444-2.769 2.735-2.769z"/></symbol><symbol id="icon-Vector-11" viewBox="0 0 48 32"><path d="M.382 15.131 15.948.36c.506-.48 1.328-.48 1.834 0s.506 1.26 0 1.741L4.431 14.77h42.271c.716 0 1.297.551 1.297 1.231s-.581 1.231-1.297 1.231H4.431l13.351 12.669c.506.48.506 1.261 0 1.741-.254.241-.586.359-.918.359s-.664-.121-.918-.359L.38 16.871a1.188 1.188 0 0 1 0-1.741l.003.002z"/></symbol><symbol id="icon-Vector" viewBox="0 0 48 32"><path d="M47.618 16.869 32.052 31.64c-.506.48-1.328.48-1.834 0s-.506-1.261 0-1.741L43.569 17.23H1.298c-.716 0-1.297-.551-1.297-1.231s.581-1.231 1.297-1.231h42.271L30.218 2.099a1.188 1.188 0 0 1 0-1.741c.254-.241.586-.359.918-.359s.664.121.918.359L47.62 15.129c.506.48.506 1.26 0 1.741l-.003-.002z"/></symbol></defs></svg>