<svg aria-hidden="true" style="position: absolute; width: 0; height: 0; overflow: hidden;" version="1.1" xmlns="http://www.w3.org/2000/svg" xmlns:xlink="http://www.w3.org/1999/xlink">
<defs>
<symbol id="icon-logo" viewBox="0 0 202 32">
<path fill="#ed1d24" style="fill: var(--color1, #ed1d24)" d="M0 0.5h98v31h-98v-31z"></path>
<path fill="#fafafa" style="fill: var(--color2, #fafafa)" d="M4.336 26.5v-19.6h4.48l1.624 10.080 1.596-10.080h4.564v19.628h-3.64v-9.464l-1.596 9.436h-1.876l-1.596-9.352v9.352h-3.556z"></path>
<path fill="#fafafa" style="fill: var(--color2, #fafafa)" d="M24.499 6.9l2.968 19.6h-3.556l-0.392-3.024h-2.744l-0.42 3.024h-3.5l2.94-19.6h4.704zM23.155 20.34l-1.008-8.232-0.952 8.232h1.96z"></path>
<path fill="#fafafa" style="fill: var(--color2, #fafafa)" d="M31.611 6.9c0.653 0 1.269 0.103 1.848 0.308 0.597 0.205 1.129 0.532 1.596 0.98 0.467 0.429 0.849 0.989 1.148 1.68 0.317 0.691 0.523 1.531 0.616 2.52 0.131 1.213 0.093 2.231-0.112 3.052-0.187 0.803-0.42 1.447-0.7 1.932-0.317 0.597-0.7 1.064-1.148 1.4l2.324 7.728h-3.584l-1.708-6.58-0.784 0.14v6.44h-3.528l0.028-19.6h4.004zM31.107 16.588c0.429-0.037 0.784-0.14 1.064-0.308 0.28-0.187 0.513-0.42 0.7-0.7s0.317-0.597 0.392-0.952c0.075-0.355 0.112-0.719 0.112-1.092 0-0.392-0.037-0.775-0.112-1.148-0.075-0.392-0.196-0.737-0.364-1.036-0.168-0.317-0.401-0.569-0.7-0.756-0.28-0.187-0.644-0.28-1.092-0.28v6.272z"></path>
<path fill="#fafafa" style="fill: var(--color2, #fafafa)" d="M39.863 6.9l1.568 11.816 1.652-11.816h3.528l-3.108 19.6h-4.144l-3.136-19.6h3.64z"></path>
<path fill="#fafafa" style="fill: var(--color2, #fafafa)" d="M46.833 26.5v-19.6h6.58v3.472h-2.968v4.424h2.996v3.64h-3.164v4.424h3.192v3.64h-6.636z"></path>
<path fill="#fafafa" style="fill: var(--color2, #fafafa)" d="M58.041 6.872v16.1h3.024v3.556h-6.496v-19.628l3.472-0.028z"></path>
<path fill="#fafafa" style="fill: var(--color2, #fafafa)" d="M61.925 16.7c0-1.475 0.131-2.809 0.392-4.004 0.261-1.213 0.625-2.249 1.092-3.108s1.036-1.521 1.708-1.988 1.409-0.7 2.212-0.7c0.803 0 1.531 0.233 2.184 0.7 0.672 0.467 1.241 1.129 1.708 1.988s0.831 1.895 1.092 3.108c0.261 1.195 0.392 2.529 0.392 4.004s-0.131 2.819-0.392 4.032c-0.261 1.195-0.625 2.221-1.092 3.080s-1.036 1.521-1.708 1.988c-0.653 0.467-1.381 0.7-2.184 0.7s-1.54-0.233-2.212-0.7-1.241-1.129-1.708-1.988c-0.467-0.859-0.831-1.885-1.092-3.080-0.261-1.213-0.392-2.557-0.392-4.032zM65.397 16.756c0 0.933 0.047 1.783 0.14 2.548s0.224 1.428 0.392 1.988c0.168 0.541 0.364 0.961 0.588 1.26 0.243 0.299 0.504 0.448 0.784 0.448s0.532-0.149 0.756-0.448c0.243-0.299 0.439-0.719 0.588-1.26 0.168-0.56 0.299-1.223 0.392-1.988s0.14-1.615 0.14-2.548-0.047-1.783-0.14-2.548c-0.093-0.784-0.224-1.447-0.392-1.988-0.149-0.541-0.345-0.961-0.588-1.26-0.224-0.299-0.476-0.448-0.756-0.448s-0.541 0.149-0.784 0.448c-0.224 0.299-0.42 0.719-0.588 1.26s-0.299 1.204-0.392 1.988c-0.093 0.765-0.14 1.615-0.14 2.548z"></path>
<path fill="#fafafa" style="fill: var(--color2, #fafafa)" d="M84.241 16.812c0 0.653-0.009 1.353-0.028 2.1 0 0.728-0.047 1.456-0.14 2.184-0.075 0.709-0.215 1.391-0.42 2.044s-0.513 1.232-0.924 1.736c-0.392 0.485-0.905 0.877-1.54 1.176s-1.419 0.448-2.352 0.448c-1.288 0-2.296-0.224-3.024-0.672-0.709-0.448-1.241-1.083-1.596-1.904-0.336-0.84-0.541-1.848-0.616-3.024-0.056-1.176-0.084-2.483-0.084-3.92v-10.108h3.444v9.94c0.019 1.157 0.093 2.184 0.224 3.080 0.056 0.392 0.131 0.775 0.224 1.148 0.093 0.355 0.205 0.681 0.336 0.98 0.149 0.28 0.308 0.513 0.476 0.7 0.187 0.168 0.392 0.252 0.616 0.252 0.28 0 0.513-0.084 0.7-0.252 0.205-0.187 0.373-0.42 0.504-0.7 0.149-0.299 0.261-0.625 0.336-0.98 0.093-0.373 0.168-0.756 0.224-1.148 0.112-0.896 0.159-1.923 0.14-3.080v-9.912h3.5v9.912z"></path>
<path fill="#fafafa" style="fill: var(--color2, #fafafa)" d="M93.176 6.9c0.019 0 0.028 0.187 0.028 0.56 0 0.355 0 0.747 0 1.176 0 0.523-0.009 1.111-0.028 1.764-0.579 0-1.167 0.056-1.764 0.168-0.579 0.093-1.101 0.252-1.568 0.476-0.448 0.205-0.821 0.457-1.12 0.756-0.28 0.299-0.42 0.644-0.42 1.036 0 0.336 0.121 0.625 0.364 0.868 0.261 0.243 0.569 0.485 0.924 0.728 0.373 0.243 0.775 0.513 1.204 0.812 0.448 0.28 0.849 0.616 1.204 1.008 0.373 0.392 0.681 0.868 0.924 1.428 0.261 0.56 0.392 1.241 0.392 2.044 0 1.195-0.224 2.221-0.672 3.080-0.429 0.84-1.027 1.54-1.792 2.1-0.747 0.541-1.624 0.943-2.632 1.204s-2.072 0.392-3.192 0.392v-3.5c0.336 0 0.775-0.056 1.316-0.168s1.064-0.299 1.568-0.56c0.523-0.261 0.971-0.607 1.344-1.036s0.551-0.961 0.532-1.596c0-0.317-0.121-0.588-0.364-0.812-0.243-0.243-0.551-0.476-0.924-0.7-0.355-0.243-0.737-0.495-1.148-0.756-0.411-0.28-0.803-0.616-1.176-1.008-0.355-0.411-0.653-0.896-0.896-1.456-0.224-0.56-0.336-1.251-0.336-2.072 0-0.859 0.243-1.652 0.728-2.38 0.504-0.728 1.148-1.353 1.932-1.876s1.661-0.933 2.632-1.232c0.989-0.299 1.969-0.448 2.94-0.448z"></path>
<path fill="#fafafa" style="fill: var(--color2, #fafafa)" d="M109.784 6.9l2.968 19.6h-3.556l-0.392-3.024h-2.744l-0.42 3.024h-3.5l2.94-19.6h4.704zM108.44 20.34l-1.008-8.232-0.952 8.232h1.96z"></path>
<path fill="#fafafa" style="fill: var(--color2, #fafafa)" d="M116.197 6.872c0.896 0 1.67 0.168 2.324 0.504s1.213 0.784 1.68 1.344c0.466 0.56 0.849 1.213 1.148 1.96 0.298 0.728 0.532 1.484 0.7 2.268s0.28 1.577 0.336 2.38c0.074 0.784 0.112 1.512 0.112 2.184 0 1.493-0.159 2.753-0.476 3.78-0.299 1.027-0.691 1.867-1.176 2.52-0.467 0.653-0.962 1.167-1.484 1.54-0.934 0.653-1.988 1.027-3.164 1.12h-3.444l0.056-19.6h3.388zM116.253 23.504c0 0 0.065-0.009 0.196-0.028 0.13-0.019 0.298-0.084 0.504-0.196 0.224-0.131 0.457-0.327 0.7-0.588 0.261-0.261 0.494-0.635 0.7-1.12 0.224-0.485 0.401-1.092 0.532-1.82 0.149-0.747 0.224-1.661 0.224-2.744 0-0.28-0.010-0.644-0.028-1.092-0.019-0.448-0.066-0.924-0.14-1.428-0.056-0.504-0.15-1.008-0.28-1.512-0.131-0.504-0.308-0.961-0.532-1.372-0.206-0.411-0.467-0.737-0.784-0.98-0.318-0.261-0.7-0.392-1.148-0.392l0.056 13.272z"></path>
<path fill="#fafafa" style="fill: var(--color2, #fafafa)" d="M127.035 6.9l1.568 11.816 1.652-11.816h3.528l-3.108 19.6h-4.144l-3.136-19.6h3.64z"></path>
<path fill="#fafafa" style="fill: var(--color2, #fafafa)" d="M134.005 26.5v-19.6h6.58v3.472h-2.968v4.424h2.996v3.64h-3.164v4.424h3.192v3.64h-6.636z"></path>
<path fill="#fafafa" style="fill: var(--color2, #fafafa)" d="M141.713 26.5v-19.6h3.5l2.996 10.136v-10.136h3.584v19.6h-3.584l-3.024-9.352v9.38l-3.472-0.028z"></path>
<path fill="#fafafa" style="fill: var(--color2, #fafafa)" d="M163.601 6.9v3.556h-3.528v16.044h-3.444v-16.044h-3.78v-3.556h10.752z"></path>
<path fill="#fafafa" style="fill: var(--color2, #fafafa)" d="M175.788 16.812c0 0.653-0.009 1.353-0.028 2.1 0 0.728-0.047 1.456-0.14 2.184-0.075 0.709-0.215 1.391-0.42 2.044s-0.513 1.232-0.924 1.736c-0.392 0.485-0.905 0.877-1.54 1.176s-1.419 0.448-2.352 0.448c-1.288 0-2.296-0.224-3.024-0.672-0.709-0.448-1.241-1.083-1.596-1.904-0.336-0.84-0.541-1.848-0.616-3.024-0.056-1.176-0.084-2.483-0.084-3.92v-10.108h3.444v9.94c0.019 1.157 0.093 2.184 0.224 3.080 0.056 0.392 0.131 0.775 0.224 1.148 0.093 0.355 0.205 0.681 0.336 0.98 0.149 0.28 0.308 0.513 0.476 0.7 0.187 0.168 0.392 0.252 0.616 0.252 0.28 0 0.513-0.084 0.7-0.252 0.205-0.187 0.373-0.42 0.504-0.7 0.149-0.299 0.261-0.625 0.336-0.98 0.093-0.373 0.168-0.756 0.224-1.148 0.112-0.896 0.159-1.923 0.14-3.080v-9.912h3.5v9.912z"></path>
<path fill="#fafafa" style="fill: var(--color2, #fafafa)" d="M180.635 6.9c0.653 0 1.269 0.103 1.848 0.308 0.597 0.205 1.129 0.532 1.596 0.98 0.467 0.429 0.849 0.989 1.148 1.68 0.317 0.691 0.523 1.531 0.616 2.52 0.131 1.213 0.093 2.231-0.112 3.052-0.187 0.803-0.42 1.447-0.7 1.932-0.317 0.597-0.7 1.064-1.148 1.4l2.324 7.728h-3.584l-1.708-6.58-0.784 0.14v6.44h-3.528l0.028-19.6h4.004zM180.131 16.588c0.429-0.037 0.784-0.14 1.064-0.308 0.28-0.187 0.513-0.42 0.7-0.7s0.317-0.597 0.392-0.952c0.075-0.355 0.112-0.719 0.112-1.092 0-0.392-0.037-0.775-0.112-1.148-0.075-0.392-0.196-0.737-0.364-1.036-0.168-0.317-0.401-0.569-0.7-0.756-0.28-0.187-0.644-0.28-1.092-0.28v6.272z"></path>
<path fill="#fafafa" style="fill: var(--color2, #fafafa)" d="M185.247 26.5v-19.6h6.58v3.472h-2.968v4.424h2.996v3.64h-3.164v4.424h3.192v3.64h-6.636z"></path>
<path fill="#fafafa" style="fill: var(--color2, #fafafa)" d="M201.047 6.9c0.019 0 0.028 0.187 0.028 0.56 0 0.355 0 0.747 0 1.176 0 0.523-0.009 1.111-0.028 1.764-0.578 0-1.166 0.056-1.764 0.168-0.578 0.093-1.101 0.252-1.568 0.476-0.448 0.205-0.821 0.457-1.12 0.756-0.28 0.299-0.42 0.644-0.42 1.036 0 0.336 0.122 0.625 0.364 0.868 0.262 0.243 0.57 0.485 0.924 0.728 0.374 0.243 0.775 0.513 1.204 0.812 0.448 0.28 0.85 0.616 1.204 1.008 0.374 0.392 0.682 0.868 0.924 1.428 0.262 0.56 0.392 1.241 0.392 2.044 0 1.195-0.224 2.221-0.672 3.080-0.429 0.84-1.026 1.54-1.792 2.1-0.746 0.541-1.624 0.943-2.632 1.204s-2.072 0.392-3.192 0.392v-3.5c0.336 0 0.775-0.056 1.316-0.168 0.542-0.112 1.064-0.299 1.568-0.56 0.523-0.261 0.971-0.607 1.344-1.036 0.374-0.429 0.551-0.961 0.532-1.596 0-0.317-0.121-0.588-0.364-0.812-0.242-0.243-0.55-0.476-0.924-0.7-0.354-0.243-0.737-0.495-1.148-0.756-0.41-0.28-0.802-0.616-1.176-1.008-0.354-0.411-0.653-0.896-0.896-1.456-0.224-0.56-0.336-1.251-0.336-2.072 0-0.859 0.243-1.652 0.728-2.38 0.504-0.728 1.148-1.353 1.932-1.876s1.662-0.933 2.632-1.232c0.99-0.299 1.97-0.448 2.94-0.448z"></path>
<path fill="none" stroke="#fafafa" style="stroke: var(--color2, #fafafa)" stroke-linejoin="miter" stroke-linecap="butt" stroke-miterlimit="4" stroke-width="1" d="M104 1.5h96"></path>
<path fill="none" stroke="#fafafa" style="stroke: var(--color2, #fafafa)" stroke-linejoin="miter" stroke-linecap="butt" stroke-miterlimit="4" stroke-width="1" d="M104 31.5h96"></path>
</symbol>
<symbol id="icon-blocks" viewBox="0 0 32 32">
<path d="M32 16c0 8.837-7.163 16-16 16s-16-7.163-16-16c0-8.837 7.163-16 16-16s16 7.163 16 16z"></path>
</symbol>
<symbol id="icon-blocks1" viewBox="0 0 32 32">
<path d="M32 16c0 8.837-7.163 16-16 16s-16-7.163-16-16c0-8.837 7.163-16 16-16s16 7.163 16 16z"></path>
</symbol>
<symbol id="icon-chevron-down" viewBox="0 0 32 32">
<path fill="none" stroke="#fafafa" style="stroke: var(--color2, #fafafa)" stroke-linejoin="round" stroke-linecap="round" stroke-miterlimit="4" stroke-width="3.5556" d="M8 12l8 8 8-8"></path>
</symbol>
<symbol id="icon-close" viewBox="0 0 32 32">
<path fill="none" stroke="#fafafa" style="stroke: var(--color2, #fafafa)" stroke-linejoin="round" stroke-linecap="round" stroke-miterlimit="4" stroke-width="2.2857" d="M24 8l-16 16"></path>
<path fill="none" stroke="#fafafa" style="stroke: var(--color2, #fafafa)" stroke-linejoin="round" stroke-linecap="round" stroke-miterlimit="4" stroke-width="2.2857" d="M8 8l16 16"></path>
</symbol>
<symbol id="icon-icon-arrow" viewBox="0 0 32 32">
<path stroke-linejoin="miter" stroke-linecap="butt" stroke-miterlimit="4" stroke-width="0.4706" d="M27.453 7.096l-23.963 23.963-2.549-2.549 23.963-23.963h-23.963v-3.605h30.118v30.118h-3.605v-23.963z"></path>
</symbol>
<symbol id="icon-instagram" viewBox="0 0 32 32">
<path d="M31.969 9.408c-0.075-1.7-0.35-2.869-0.744-3.882-0.406-1.075-1.031-2.038-1.85-2.838-0.8-0.813-1.769-1.444-2.832-1.844-1.019-0.394-2.182-0.669-3.882-0.744-1.713-0.081-2.257-0.1-6.601-0.1s-4.888 0.019-6.595 0.094c-1.7 0.075-2.869 0.35-3.882 0.744-1.075 0.406-2.038 1.031-2.838 1.85-0.813 0.8-1.444 1.769-1.844 2.832-0.394 1.019-0.669 2.182-0.744 3.882-0.081 1.713-0.1 2.257-0.1 6.601s0.019 4.888 0.094 6.595c0.075 1.7 0.35 2.869 0.744 3.882 0.406 1.075 1.038 2.038 1.85 2.838 0.8 0.813 1.769 1.444 2.832 1.844 1.019 0.394 2.182 0.669 3.882 0.744 1.706 0.075 2.25 0.094 6.595 0.094s4.888-0.018 6.595-0.094c1.7-0.075 2.869-0.35 3.882-0.744 2.151-0.831 3.851-2.532 4.682-4.682 0.394-1.019 0.669-2.182 0.744-3.882 0.075-1.707 0.094-2.251 0.094-6.595s-0.006-4.888-0.081-6.595zM29.087 22.473c-0.069 1.563-0.331 2.407-0.55 2.969-0.538 1.394-1.644 2.501-3.038 3.038-0.563 0.219-1.413 0.481-2.969 0.55-1.688 0.075-2.194 0.094-6.464 0.094s-4.782-0.018-6.464-0.094c-1.563-0.069-2.407-0.331-2.969-0.55-0.694-0.256-1.325-0.663-1.838-1.194-0.531-0.519-0.938-1.144-1.194-1.838-0.219-0.563-0.481-1.413-0.55-2.969-0.075-1.688-0.094-2.194-0.094-6.464s0.019-4.782 0.094-6.464c0.069-1.563 0.331-2.407 0.55-2.969 0.256-0.694 0.663-1.325 1.2-1.838 0.519-0.531 1.144-0.938 1.838-1.194 0.563-0.219 1.413-0.481 2.969-0.55 1.688-0.075 2.194-0.094 6.464-0.094 4.276 0 4.782 0.019 6.464 0.094 1.563 0.069 2.407 0.331 2.969 0.55 0.694 0.256 1.325 0.662 1.838 1.194 0.531 0.519 0.938 1.144 1.194 1.838 0.219 0.563 0.481 1.413 0.55 2.969 0.075 1.688 0.094 2.194 0.094 6.464s-0.019 4.77-0.094 6.457z"></path>
<path d="M16.059 7.782c-4.538 0-8.22 3.682-8.22 8.22s3.682 8.22 8.22 8.22c4.538 0 8.22-3.682 8.22-8.22s-3.682-8.22-8.22-8.22zM16.059 21.335c-2.944 0-5.332-2.388-5.332-5.332s2.388-5.332 5.332-5.332c2.944 0 5.332 2.388 5.332 5.332s-2.388 5.332-5.332 5.332z"></path>
<path d="M26.524 7.457c0 1.060-0.859 1.919-1.919 1.919s-1.919-0.859-1.919-1.919c0-1.060 0.859-1.919 1.919-1.919s1.919 0.859 1.919 1.919z"></path>
</symbol>
<symbol id="icon-search" viewBox="0 0 32 32">
<path fill="none" stroke="#fafafa" style="stroke: var(--color2, #fafafa)" stroke-linejoin="round" stroke-linecap="round" stroke-miterlimit="4" stroke-width="3.5556" d="M14.667 25.333c5.891 0 10.667-4.776 10.667-10.667s-4.776-10.667-10.667-10.667c-5.891 0-10.667 4.776-10.667 10.667s4.776 10.667 10.667 10.667z"></path>
<path fill="none" stroke="#fafafa" style="stroke: var(--color2, #fafafa)" stroke-linejoin="round" stroke-linecap="round" stroke-miterlimit="4" stroke-width="3.5556" d="M28 28l-5.8-5.8"></path>
</symbol>
<symbol id="icon-twitter" viewBox="0 0 32 32">
<path d="M32 6.078c-1.19 0.522-2.458 0.868-3.78 1.036 1.36-0.812 2.398-2.088 2.886-3.626-1.268 0.756-2.668 1.29-4.16 1.588-1.204-1.282-2.92-2.076-4.792-2.076-3.632 0-6.556 2.948-6.556 6.562 0 0.52 0.044 1.020 0.152 1.496-5.454-0.266-10.28-2.88-13.522-6.862-0.566 0.982-0.898 2.106-0.898 3.316 0 2.272 1.17 4.286 2.914 5.452-1.054-0.020-2.088-0.326-2.964-0.808 0 0.020 0 0.046 0 0.072 0 3.188 2.274 5.836 5.256 6.446-0.534 0.146-1.116 0.216-1.72 0.216-0.42 0-0.844-0.024-1.242-0.112 0.85 2.598 3.262 4.508 6.13 4.57-2.232 1.746-5.066 2.798-8.134 2.798-0.538 0-1.054-0.024-1.57-0.090 2.906 1.874 6.35 2.944 10.064 2.944 12.072 0 18.672-10 18.672-18.668 0-0.29-0.010-0.57-0.024-0.848 1.302-0.924 2.396-2.078 3.288-3.406z"></path>
</symbol>
<symbol id="icon-arrow-4" viewBox="0 0 32 32">
<path fill="#34387f" style="fill: var(--color1, #34387f)" d="M32 16c0 8.837-7.163 16-16 16s-16-7.163-16-16c0-8.837 7.163-16 16-16s16 7.163 16 16z"></path>
<path fill="#fafafa" style="fill: var(--color2, #fafafa)" d="M22.881 16.729l-4.864-4.616c-0.158-0.15-0.415-0.15-0.573 0s-0.158 0.394 0 0.544l4.172 3.959h-13.21c-0.224 0-0.405 0.172-0.405 0.385s0.182 0.385 0.405 0.385h13.21l-4.172 3.959c-0.158 0.15-0.158 0.394 0 0.544 0.079 0.075 0.183 0.112 0.287 0.112s0.207-0.038 0.287-0.112l4.864-4.616c0.158-0.15 0.158-0.394 0-0.544l-0.001 0.001z"></path>
</symbol>
<symbol id="icon-arrow-3" viewBox="0 0 32 32">
<path fill="none" stroke="#fafafa" style="stroke: var(--color2, #fafafa)" stroke-linejoin="miter" stroke-linecap="butt" stroke-miterlimit="4" stroke-width="1" d="M0.5 16c0 8.56 6.94 15.5 15.5 15.5s15.5-6.94 15.5-15.5c0-8.56-6.94-15.5-15.5-15.5s-15.5 6.94-15.5 15.5z"></path>
<path fill="#fafafa" style="fill: var(--color2, #fafafa)" opacity="0.3" d="M9.119 16.729l4.865-4.616c0.158-0.15 0.415-0.15 0.573 0s0.158 0.394 0 0.544l-4.172 3.959h13.21c0.224 0 0.405 0.172 0.405 0.385s-0.182 0.385-0.405 0.385h-13.21l4.172 3.959c0.158 0.15 0.158 0.394 0 0.544-0.079 0.075-0.183 0.112-0.287 0.112s-0.207-0.038-0.287-0.112l-4.865-4.616c-0.158-0.15-0.158-0.394 0-0.544l0.001 0.001z"></path>
</symbol>
<symbol id="icon-linkedin" viewBox="0 0 32 32">
<path fill="none" stroke="#fafafa" style="stroke: var(--color2, #fafafa)" stroke-linejoin="round" stroke-linecap="round" stroke-miterlimit="4" stroke-width="1.44" d="M22.6 10.6c-0.575 0.405-1.211 0.715-1.884 0.918-0.361-0.416-0.842-0.71-1.376-0.844s-1.097-0.1-1.611 0.096c-0.514 0.196-0.956 0.546-1.266 1.002s-0.471 0.995-0.464 1.546v0.6c-1.054 0.027-2.099-0.207-3.041-0.681s-1.952-1.603-2.559-2.467c0 0-2.2 5.829 3.2 8.229-1.236 0.839-2.708 1.259-4.2 1.2 5.4 3 12 0 12-6.9-0.001-0.167-0.017-0.334-0.048-0.498 0.612-0.604 1.044-1.366 1.248-2.202z"></path>
<path fill="none" stroke="#fafafa" style="stroke: var(--color2, )" stroke-linejoin="miter" stroke-linecap="butt" stroke-miterlimit="4" stroke-width="0.8" d="M4.8 0.4h22.4c2.43 0 4.4 1.97 4.4 4.4v22.4c0 2.43-1.97 4.4-4.4 4.4h-22.4c-2.43 0-4.4-1.97-4.4-4.4v-22.4c0-2.43 1.97-4.4 4.4-4.4z"></path>
</symbol>
<symbol id="icon-facebook" viewBox="0 0 32 32">
<path d="M21.329 5.313h2.921v-5.088c-0.504-0.069-2.237-0.225-4.256-0.225-4.212 0-7.097 2.649-7.097 7.519v4.481h-4.648v5.688h4.648v14.312h5.699v-14.311h4.46l0.708-5.688h-5.169v-3.919c0.001-1.644 0.444-2.769 2.735-2.769z"></path>
</symbol>
<symbol id="icon-Vector-11" viewBox="0 0 48 32">
<path d="M0.382 15.131l15.566-14.771c0.506-0.48 1.328-0.48 1.834 0s0.506 1.26 0 1.741l-13.351 12.669h42.271c0.716 0 1.297 0.551 1.297 1.231s-0.581 1.231-1.297 1.231l-42.271-0 13.351 12.669c0.506 0.48 0.506 1.261 0 1.741-0.254 0.241-0.586 0.359-0.918 0.359s-0.664-0.121-0.918-0.359l-15.566-14.771c-0.506-0.48-0.506-1.26 0-1.741l0.003 0.002z"></path>
</symbol>
<symbol id="icon-Vector" viewBox="0 0 48 32">
<path d="M47.618 16.869l-15.566 14.771c-0.506 0.48-1.328 0.48-1.834 0s-0.506-1.261 0-1.741l13.351-12.669h-42.271c-0.716 0-1.297-0.551-1.297-1.231s0.581-1.231 1.297-1.231l42.271 0-13.351-12.669c-0.506-0.48-0.506-1.26 0-1.741 0.254-0.241 0.586-0.359 0.918-0.359s0.664 0.121 0.918 0.359l15.566 14.771c0.506 0.48 0.506 1.26 0 1.741l-0.003-0.002z"></path>
</symbol>
</defs>
</svg>
